<svg xmlns="http://www.w3.org/2000/svg" x="0" y="0" viewBox="0 0 512 512">
      <g>
        <path
          fill="#f4f0f9"
          d="M504.484 256c0 137.234-111.25 248.484-248.484 248.484S7.516 393.234 7.516 256 118.766 7.516 256 7.516 504.484 118.766 504.484 256zm0 0"
          opacity="1"
          data-original="#f4f0f9"
        ></path>
        <path
          fill="#d2c4e7"
          d="M256 7.516C118.766 7.516 7.516 118.766 7.516 256H256v248.484c137.234 0 248.484-111.25 248.484-248.484S393.234 7.516 256 7.516zm0 0"
          opacity="1"
          data-original="#d2c4e7"
          className=""
        ></path>
        <path
          fill="#e8e2f3"
          d="M48.594 256c0-130.316 100.324-237.191 227.945-247.633A251.545 251.545 0 0 0 256 7.516C118.766 7.516 7.516 118.766 7.516 256S118.766 504.484 256 504.484c6.918 0 13.766-.296 20.54-.851C148.917 493.19 48.593 386.316 48.593 256zm0 0"
          opacity="1"
          data-original="#e8e2f3"
        ></path>
        <path
          fill="#b098d4"
          d="M276.54 8.367A251.545 251.545 0 0 0 256 7.516C118.766 7.516 7.516 118.766 7.516 256h41.078c0-130.316 100.324-237.191 227.945-247.633zm0 0"
          opacity="1"
          data-original="#b098d4"
          className=""
        ></path>
        <path
          fill="#d2c4e7"
          d="M297.082 256H256v248.484c13.996 0 27.715-1.175 41.082-3.398zm0 0"
          opacity="1"
          data-original="#d2c4e7"
          className=""
        ></path>
        <path
          fill="#ffdb7e"
          d="M392.266 199.89c-35.414 0-64.125-28.71-64.125-64.124 0-14.758 4.996-28.344 13.375-39.18-30.332 5.086-53.454 31.45-53.454 63.227 0 35.414 28.711 64.125 64.125 64.125 20.657 0 39.024-9.778 50.75-24.95a64.498 64.498 0 0 1-10.671.903zm0 0"
          opacity="1"
          data-original="#ffdb7e"
        ></path>
        <path
          fill="#ffd15e"
          d="M368.219 207.906c-35.414 0-64.125-28.71-64.125-64.125a63.783 63.783 0 0 1 11.492-36.613c-16.633 11.582-27.524 30.836-27.524 52.644 0 35.415 28.711 64.125 64.125 64.125 20.657 0 39.024-9.777 50.75-24.949a66.57 66.57 0 0 1-2.789.407c-9.402 5.414-20.3 8.511-31.93 8.511zm0 0"
          opacity="1"
          data-original="#ffd15e"
        ></path>
        <path
          d="M440.105 78.121a7.508 7.508 0 0 0-10.625-.183 7.511 7.511 0 0 0-.183 10.624 242.391 242.391 0 0 1 31.578 40.477l-14.262 8.234c-3.27 1.887-4.648 6.055-3.129 9.516 1.77 4.047 6.809 5.715 10.645 3.5l14.27-8.238c17.488 32.512 27.289 68.781 28.44 106.433h-32.433a7.516 7.516 0 0 0 0 15.031h32.438c-1.184 38.376-11.375 74.52-28.54 106.383l-14.175-8.187a7.515 7.515 0 0 0-10.266 2.75 7.512 7.512 0 0 0 2.75 10.266l14.149 8.171a242.887 242.887 0 0 1-77.864 77.864l-8.171-14.149a7.512 7.512 0 0 0-10.266-2.75 7.515 7.515 0 0 0-2.75 10.266l8.187 14.176c-31.863 17.16-68.007 27.355-106.382 28.535v-16.403a7.516 7.516 0 0 0-15.032 0v16.407c-38.375-1.184-74.515-11.375-106.379-28.54l8.184-14.175a7.516 7.516 0 0 0-13.016-7.516l-8.168 14.149a242.783 242.783 0 0 1-77.867-77.864l14.153-8.168c3.593-2.078 4.824-6.671 2.75-10.265s-6.672-4.828-10.266-2.75l-14.176 8.183c-17.164-31.863-27.36-68.007-28.543-106.382h16.407c4.148 0 7.515-3.368 7.515-7.516s-3.367-7.516-7.515-7.516H15.156c1.184-38.375 11.375-74.52 28.54-106.379l14.175 8.184c3.836 2.215 8.875.543 10.645-3.5 1.52-3.46.14-7.629-3.13-9.516l-14.148-8.171a242.887 242.887 0 0 1 77.864-77.864l8.171 14.149c2.207 3.828 7.403 4.914 10.965 2.293 3.047-2.239 3.938-6.54 2.051-9.809l-8.184-14.176c31.86-17.16 68.004-27.355 106.38-28.539v32.438c0 4.148 3.367 7.515 7.515 7.515s7.516-3.367 7.516-7.515V15.156c37.726 1.137 73.832 10.824 106.449 28.422l-8.254 14.297c-2.094 3.629-.676 8.531 3.07 10.434 3.489 1.773 7.985.48 9.946-2.918l8.234-14.262a244.647 244.647 0 0 1 21.566 15.105 7.513 7.513 0 0 0 10.551-1.277 7.514 7.514 0 0 0-1.277-10.55C368.39 18.811 313.824 0 256 0 187.621 0 123.332 26.629 74.98 74.98 26.63 123.332 0 187.621 0 256s26.629 132.668 74.98 181.02C123.332 485.37 187.621 512 256 512s132.668-26.629 181.02-74.98C485.37 388.668 512 324.379 512 256c0-66.734-25.531-129.906-71.895-177.879zm0 0"
          fill="#000000"
          opacity="1"
          data-original="#000000"
        ></path>
        <path
          d="M151.797 248.484a7.516 7.516 0 0 0 0 15.032h16.031c4.149 0 7.516-3.368 7.516-7.516s-3.367-7.516-7.516-7.516zM103.703 248.484a7.516 7.516 0 0 0 0 15.032h16.031c4.149 0 7.516-3.368 7.516-7.516s-3.367-7.516-7.516-7.516zM263.516 392.266c0-4.149-3.368-7.516-7.516-7.516s-7.516 3.367-7.516 7.516v16.03a7.516 7.516 0 0 0 15.032 0zM55.61 248.484a7.516 7.516 0 0 0 0 15.032h16.03c4.15 0 7.516-3.368 7.516-7.516s-3.367-7.516-7.515-7.516zM256 432.844a7.519 7.519 0 0 0-7.516 7.515v16.032a7.516 7.516 0 0 0 15.032 0v-16.032a7.519 7.519 0 0 0-7.516-7.515zM263.516 256a7.519 7.519 0 0 0-7.516-7.516h-8.016c-4.148 0-7.515 3.368-7.515 7.516s3.367 7.516 7.515 7.516h.5v.5c0 4.148 3.368 7.515 7.516 7.515s7.516-3.367 7.516-7.515zM199.89 248.484c-4.148 0-7.515 3.368-7.515 7.516s3.367 7.516 7.516 7.516h16.03c4.15 0 7.517-3.368 7.517-7.516s-3.368-7.516-7.516-7.516zM263.516 344.172c0-4.149-3.368-7.516-7.516-7.516s-7.516 3.367-7.516 7.516v16.031a7.516 7.516 0 0 0 15.032 0zM263.516 296.078c0-4.148-3.368-7.515-7.516-7.515s-7.516 3.367-7.516 7.515v16.031c0 4.149 3.368 7.516 7.516 7.516s7.516-3.367 7.516-7.516zM347.965 92.727a7.515 7.515 0 0 0-7.688-3.551c-34.609 5.8-59.73 35.508-59.73 70.636 0 39.5 32.14 71.641 71.64 71.641 22.34 0 43.004-10.156 56.696-27.867 2.52-3.258 1.742-7.98-1.426-10.516a7.341 7.341 0 0 0-5.508-1.53c-3.238.41-6.41.835-9.683.835-31.215 0-56.61-25.395-56.61-56.61 0-12.632 4.082-24.59 11.805-34.581a7.508 7.508 0 0 0 .504-8.457zm35.7 114.164c-9.185 6.168-20.056 9.53-31.477 9.53-31.215 0-56.61-25.394-56.61-56.608 0-21.458 11.852-40.348 29.86-49.942-3.176 8.168-4.813 16.895-4.813 25.895 0 36.593 27.574 66.863 63.04 71.125zm0 0"
          fill="#000000"
          opacity="1"
          data-original="#000000"
        ></path>
      </g>
    </svg>